<svg id="SvgjsSvg1001" width="288" height="288" xmlns="http://www.w3.org/2000/svg" version="1.1" xmlns:xlink="http://www.w3.org/1999/xlink" xmlns:svgjs="http://svgjs.com/svgjs"><rect id="SvgjsRect1013" width="288" height="288" rx="0" ry="0" transform="matrix(1,0,0,1,0,0)" fill="#66ccff"></rect><defs id="SvgjsDefs1002"></defs><g id="SvgjsG1008" transform="matrix(0.9999999999999999,0,0,0.9999999999999999,2.842170943040401e-14,2.842170943040401e-14)"><svg xmlns="http://www.w3.org/2000/svg" enable-background="new 0 0 1000 1000" viewBox="0 0 1000 1000" width="288" height="288"><switch><g fill="#a7ff83" class="color000 svgShape"><path fill="#071a52" d="M950.89,179.65C855.15,44.86,594.22,391.03,527.72,473.9c1.03-17.99,16.03-41.67,1.04-57.2
			c23.27-40.17,44.74-90.37,57.76-134.92c8.5-2.3,20.24-52.62,10.75-54.72c-8.81-1.8-19,40.54-15.78,49.87
			c-15.85,49.91-38.89,102.53-68.32,146.03c-2.77-9.37-2.09-23.85-12.49-27.04c-10.39,3.19-9.71,17.67-12.47,27.04
			c-29.45-43.5-52.47-96.12-68.34-146.03c3.23-9.33-6.97-51.67-15.77-49.87c-9.5,2.1,2.25,52.42,10.75,54.72
			c13,44.55,34.48,94.75,57.76,134.92c-14.98,15.54,0,39.21,1.03,57.2C407.47,391.4,146.3,44.82,50.49,179.64
			C3.32,258.1,4.2,343.44,30.25,421.51c30.09,105.43,97.79,186.47,205.22,133.25c15.71-4.53,31.4-8.83,46.87-10.59
			c-28.84,8.19-179.77,113.73-141.62,183.18c0,0,3.61,12.89,31,9.71c5.36,9.33-2.85,19-1.11,28.92c0.08,0.01,0.15,0.03,0.23,0.04
			c0.03,1.3,0.14,2.66,0.34,4.04c-0.05-0.01-0.11-0.03-0.16-0.04c5.15,22.67,20.13,35.43,32.97,17.94c11.32-5.26,9.64,12,9.33,20.11
			c4.87,64.05,50.37,5.6,57.06,38.47c0,0,1.53,9.4,27.54,1.4c74.41-20.16,148.31-83.37,177.73-159.97
			c4.62,132.92,45.48,132.92,50.1,0c31.92,81.27,112.85,150.01,195.08,163.19c9.41,0,10.17-4.62,10.17-4.62
			c6.64-32.84,52.23,25.56,57.05-38.47c-0.31-8.11-1.99-25.37,9.34-20.11c12.81,17.56,27.92,4.57,32.96-17.94
			c-0.05,0.01-0.11,0.03-0.16,0.04c0.22-1.38-7.85-40.91-0.54-33c20.72,22.39,31.01-9.71,31.01-9.71
			c25.35-46.87-33.79-109.39-84.38-148.09c-14.48-13.63-50.36-33.25-57.24-35.09c57.26,4.81,71.48,38.56,148.73,21.23
			C984.63,511.81,1023.41,287.32,950.89,179.65z M499.5,598.02c7.06,0.01,14.68-2.86,14.67,0.07c0,2.94-5.74,7.97-12.8,7.96
			c-7.06-0.01-12.79-5.07-12.79-8.01C488.6,595.1,492.44,598,499.5,598.02z M516.57,620.47c0,3.5-6.82,9.48-15.23,9.46
			c-8.39-0.03-15.19-6.03-15.17-9.52c0-3.5,4.91,0.47,13.3,0.49C507.88,620.92,516.59,616.99,516.57,620.47z M489.7,496.41
			c9.15,35.25,0,84.06,0,84.06C480.55,535.73,489.7,496.41,489.7,496.41z M475.02,524.96c-14.41-19.57-29.64-38.52-45.6-56.82
			l11.89-6.26C461.13,480.29,473.99,495.47,475.02,524.96z M436.44,456.78l-11.65,6.13c-4.28-4.85-8.64-9.65-13.03-14.41l6.47-10.78
			C424.31,444.07,430.37,450.42,436.44,456.78z M393.15,411.42c6.74,7.08,13.49,14.14,20.23,21.21l-6.41,10.67
			c-5.71-6.07-11.51-12.07-17.38-17.99C390.91,420.7,392.11,416.07,393.15,411.42z M380.85,390.46c3.74,29.75-34.5-1.37-29.23-16.23
			C349.18,342.51,382.51,375.2,380.85,390.46z M333.88,349.36c2.05,8.75,3.16,17.71,3.13,26.74c-8.15-7.06-16.42-14.01-24.81-20.81
			c-2.26-12.26-4.7-24.66-7.85-36.87C314.2,328.73,324.04,339.05,333.88,349.36z M282.18,276.34c18.63,12.8,6.73,49.68-5.13,17.71
			C267.36,287.29,266.71,267.99,282.18,276.34z M260.56,248.28c3.74,0,6.78,3.04,6.78,6.78s-3.04,6.78-6.78,6.78
			c-3.74,0-6.78-3.04-6.78-6.78S256.81,248.28,260.56,248.28z M235.52,244.64c19.44,28.34,34.62,59.81,50.52,90.12
			c-20.16-15.7-41.69-29.65-62.56-44.3c9.44-10.36-5.29-19.25-9.26-27.31c-2.06-15.19-3-31.96-7.34-47.22
			C216.76,224.77,226.26,234.55,235.52,244.64z M393.58,487.46c-10.7-6.43-21.59-12.54-32.64-18.34
			c-1.3-13.45-4.61-26.86-11.13-38.79c7.48,5.27,14.85,10.7,22.1,16.27l-0.03,0.03C384.73,456.19,392.36,471.6,393.58,487.46z
			 M378.74,653.93c8.26-11.52,14.75-25.83,25.25-35.1c38.93-16.38-4.16,56.51-6.39,69.47C397.87,674.92,395.48,655.28,378.74,653.93
			z M349.88,679.84c-8.23-2.1-16.77-3.16-25.06-3.1c5.65-10.48,11.81-20.7,18.37-30.63c8.35,6.79,18.09-2.96,25.87-5.72
			c-0.11,3.36-1.46,6.67-1.48,10.14C361.34,660.12,355.4,669.89,349.88,679.84z M351.85,700.51c12.8,0.58,33.72,9.36,30.78,24.93
			c-12.65,22.47-66.61,17.41-47.39-15.88C336.84,703.31,346.37,699.76,351.85,700.51z M77.62,438.66c-1.8-4.64-3.5-9.33-5.06-14.09
			c37.25,4.19,73.8,22.67,93.38,55.44c-1.23,0.16-2.48,0.33-3.72,0.49C141.68,455.2,109.47,441.96,77.62,438.66z M155.22,481.39
			c-17.94,2.21-35.86,3.84-53.77,3.13c-7.29-10.74-13.5-22.07-18.81-33.87C109.39,452.63,136.04,462.4,155.22,481.39z M87.97,312.93
			c-1.99,6.58-3.34,13.78-3.72,21.76c-9.84-3.27-19.65-5.83-29.9-7.02c-0.57-7.67-1.17-15.1-1.98-22.75
			C64.27,307.33,76.15,309.99,87.97,312.93z M51.93,291.69c0.14-16.54,2.81-33.9,8.2-49.9c15.61,16.38,27.23,36.73,32.69,58.64
			c-0.16,0.35-0.34,0.72-0.5,1.07C78.91,297.9,65.44,294.63,51.93,291.69z M84.42,347.13c0.94,12.98,4.26,27.82,10.94,45.07
			c-10.68-0.92-21.37-1.59-32.07-2.03c-3.31-15.44-5.68-31.12-7.4-46.75C65.45,343.6,75.25,345.07,84.42,347.13z M184.29,320.08
			c4.47-13.94,20.26-5.64,18.89,6.54c0.04,12.89-9.26,23.24-16.5,32.99c-6.49,9.42-8.58,24.64-20.2,29.14
			c-17.12-0.54-13.31-24.41-5.79-33.87C172.09,342.82,187.37,339.72,184.29,320.08z M276.52,431.96
			c-29.07-10.51-58.83-19.09-89.03-25.72c-0.75-13.79,12.04-22.74,19.43-32.88C235.2,384.97,263.66,403.15,276.52,431.96z
			 M213.1,363.53c1.29-2.47,2.4-4.98,3.28-7.5c40.03,12.16,67.97,44.23,80.43,83.63c-4.41-1.75-8.84-3.46-13.29-5.11
			C273.32,401.13,243.33,378.31,213.1,363.53z M145.39,398.33c-10.36-1.64-20.76-3.05-31.17-4.23c0.69-11.71,1.04-23.01,6.28-35.92
			c4.41,1.68,8.83,3.4,13.15,5.29C125.79,378.56,139.86,386.92,145.39,398.33z M135.91,358.75c-4.24-2.49-8.58-4.84-12.95-7.15
			c3.31-8.42,7.2-17.17,10.94-25.91c11,3.39,21.92,7.01,32.77,10.86C153.87,335.89,141.95,346.96,135.91,358.75z M146.84,265.72
			c6.75,3.46,13.46,7,20.12,10.62c-6.37,11.5,2.09,37.07,5.21,50.89c-11.23-4.24-22.53-8.24-33.92-12
			C145.45,297.22,150.58,279.74,146.84,265.72z M149.51,441.63c-8.11-7.39-2.24-17.79,4.88-23.27
			C179.08,351.41,191.92,468.22,149.51,441.63z M75.52,210.94c8.45-11.84,19.23-21.29,32.47-26.72
			c33.08,11.69,52.46,46.95,67.03,77.14C142.72,242.82,109.46,226.01,75.52,210.94z M129.53,262.28c3.46-1.67,7.17,0.71,8.26,4.15
			c3.77,9.99-4.2,18.97-10.58,25.78c-5.22,4.41-9.79,17.26-18.16,12.99c-6.24-10.37,4.37-21.46,11-28.92
			C121.7,270.76,123.74,264.64,129.53,262.28z M115.4,321.26c2.89,9.22-2.56,18.13-4.99,26.82c-2.22,5.22,0.42,33.29-10.06,20.92
			c-8.62-15.12-7.7-38.09,3.67-51.41C108.08,313.73,114.21,315.92,115.4,321.26z M145.87,409.59c-1.67,8.91-18.71,13.19-11.7,25.56
			c-5.91-6.63-43.04-25.3-67.1-29.22c-0.27-1.03-0.54-2.05-0.8-3.08C92.85,403.6,119.45,405.85,145.87,409.59z M156.45,457.43
			c10.03,5.25,21.26,4.12,27.19-5.38c6.16,3.92,14.32,10.93,21.49,23.09c-11.92,1.19-23.84,2.83-35.75,4.42
			C166.5,471.65,161.44,464.27,156.45,457.43z M187.14,444.63c0.83-2.75,1.25-5.64,1.41-8.6c30.93,6.71,62.71,16.87,86.92,37.95
			c-17.56-1.65-35.31-1.79-53.08-0.19c-2.79,0.15-5.59,0.34-8.37,0.56C205.39,458.25,194.89,449.39,187.14,444.63z M187.86,419.19
			c-0.05-0.81-0.12-1.61-0.18-2.41c49.65,8.04,80.51,21.61,113.64,60.73c-5.41-0.98-10.85-1.79-16.3-2.48
			C260.76,445.4,223.57,430.13,187.86,419.19z M269.18,438.51c14.6,4.85,29.04,10.21,43.28,16.04l-0.18,0.12
			c6.2,7.62,11.1,17.3,10.07,27.35c-5.65-1.41-11.35-2.66-17.07-3.76C294.97,463.58,282.7,450.32,269.18,438.51z M353.54,500.58
			c-19.77,16.99-46.1,18.89-67.2,22.48c10.82-9.45,19.93-20.84,26.45-33.63C326.59,492.26,340.2,496,353.54,500.58z M351.73,490.81
			c-8.24-2.87-16.58-5.42-25.02-7.65c1.17-5.11,0.88-10.47-0.24-15.55c-0.66-2.81-1.6-5.72-2.78-8.35
			c6.26,2.71,12.47,5.52,18.66,8.41C347.04,474.52,351.2,482.42,351.73,490.81z M349.12,470.89c14.44,6.49,30.63,12.87,31.02,31.24
			c-7.99-3.58-16.09-6.87-24.31-9.86C355.84,484.64,352.8,477.4,349.12,470.89z M359.7,502.77c13.04,4.76,25.83,10.32,38.28,16.57
			c-19.17-3.09-38.05-3.72-55.1-3.08C348.88,512.27,354.53,507.84,359.7,502.77z M405.15,541.55
			c-25.6,14.71-51.24,31.51-75.13,50.49c1.61-5.87-2.07-13.15-8.83-12.8c21.56-15.16,44.16-28.69,66.9-40.68
			C393.95,539.32,399.64,540.34,405.15,541.55z M379.97,598.74c16.34-18.02,34.33-34.45,53.76-48.91c3.74,1.36,7.32,2.74,10.71,4.14
			c-15.4,16.65-30.66,34.15-45.1,52.49C400.54,595.33,387.05,595.14,379.97,598.74z M367.52,596.35
			c-2.28-9.27-13.84-9.15-21.02-6.82c21.33-17.12,44.01-32.45,66.71-46.05c3.72,0.96,7.31,1.99,10.81,3.09
			C403.74,561.37,384.8,578.06,367.52,596.35z M361.22,603.16c-4.96,5.49-9.76,11.1-14.43,16.84c-7.15-22.82-34.89,7.9-46.63,12.42
			c9.1-9.84,18.79-19.23,28.89-28.18C336.8,600.68,362.9,585.45,361.22,603.16z M320.5,599.82c-10.54,8.81-20.65,18.07-30.21,27.8
			c-1.15-21.33-16.92-9.84-26.52-0.91c12.93-12.73,26.78-24.58,41.27-35.63C317.57,585.16,329.25,580.81,320.5,599.82z
			 M281.57,623.56c1.26,3.59,0.31,7.9,1.44,11.67c-6.87,7.39-13.42,15.04-19.57,22.94c-10.91,0.11-23.02,1.86-32.99,5.88
			c3.85-5.02,7.86-9.92,12.01-14.74C259.27,649.19,267.79,630.14,281.57,623.56z M290.75,642.96c18.82,0.07,30.52-21.48,48.02-23.65
			c1.63,2.64,0.87,6.78,0.73,9.91c-11.23,14.66-21.48,30.07-30.63,46.1c-15.99-3.58-8.94-12.95-30.7-16.22
			c-0.11-0.01-0.23-0.03-0.34-0.05C281.97,653.58,286.28,648.21,290.75,642.96z M347.46,639.79c9.22-11.29,15.73-26.91,29.76-32.64
			c31.89-15.5,5.53,21.22-1.41,31.13C371.65,623.02,353.08,646.84,347.46,639.79z M409.27,609.85c13.87-18.34,28.51-35.85,43.2-52.4
			c3.1,1.4,5.98,2.78,8.62,4.11c-11.74,19.92-23.62,40.35-34.53,61.33C426.52,613.92,418,607.1,409.27,609.85z M423.25,524.92
			c-12.57-7.71-25.57-14.72-38.94-20.92c-0.11-6.17-2.18-12.09-4.89-17.53c29.5,16.19,57.72,34.7,84.23,55.47
			C450.76,534.4,437.11,528.88,423.25,524.92z M397.91,490.09c0-9.46-2.05-18.94-6.05-27.54c29.49,24.54,56.76,51.71,81.23,81.5
			C449.42,524.18,424.25,506.18,397.91,490.09z M356.42,466.77c-8.11-4.18-16.3-8.18-24.57-12.03
			c-2.98-18.07-10.25-35.63-21.4-50.23C337.99,418.64,352.32,435.38,356.42,466.77z M327.19,452.6
			c-7.82-3.55-15.73-6.97-23.69-10.24c-6.14-21.17-15.92-41.63-29.82-58.82C302.36,395.36,320.87,422.84,327.19,452.6z
			 M218.62,346.41c4.07-14.59-15.57-29.83-4.99-43.01c25.06,22.09,48.68,46.44,67.18,74.36
			C260.59,366.39,239.81,355.94,218.62,346.41z M203.48,272.64c5.07,11.25-19.06,54.03-20.53,22.77c0.95-6.59,0.46-13.71,3.08-19.93
			C188.2,267.8,199.92,264.18,203.48,272.64z M159.06,189.51c7.66-15.58,26.06,2.91,28.67,13.52c10.2,20.28-1.85,55.21-13.8,16.27
			C170.98,208.39,158.32,201.25,159.06,189.51z M138.53,173.71c3.74,0,6.78,3.04,6.78,6.78s-3.04,6.78-6.78,6.78
			s-6.78-3.04-6.78-6.78S134.79,173.71,138.53,173.71z M111.41,160.15c3.74,0,6.78,3.04,6.78,6.78c0,3.74-3.04,6.78-6.78,6.78
			s-6.78-3.04-6.78-6.78C104.63,163.19,107.67,160.15,111.41,160.15z M82.94,164.22c5.24,0,9.49,4.25,9.49,9.49
			c0,5.24-4.25,9.49-9.49,9.49c-5.24,0-9.49-4.25-9.49-9.49C73.45,168.47,77.7,164.22,82.94,164.22z M124.13,254.36
			c-6.64,10.78-16.79,21.49-25.19,34.95c-4.84-21.59-14.94-41.87-28.7-59.2C88.39,237.7,106.37,245.76,124.13,254.36z M55.82,194.05
			c4.49,0,8.14,3.64,8.14,8.14c0,4.49-3.64,8.14-8.14,8.14s-8.14-3.64-8.14-8.14C47.69,197.69,51.33,194.05,55.82,194.05z
			 M37.34,239.87c0.5-8.45,12.34-13.89,15.81-4.33c2.7,8.01-7.13,38.53-18.35,31.86C27.6,259.71,34.3,248.01,37.34,239.87z
			 M26.03,320.12c-0.44-5.41-2.49-11.48,0.3-16.53c2.93-4.66,9.19-4.44,11.96,0.21c4.2,12.7,9.19,40.81,0.23,51.48
			C25.3,360.69,26.66,327.9,26.03,320.12z M40.24,417.97c-3.34-8.57-3.39-18.31-5.29-27.28c-0.2-4.74,3.53-8.62,8.41-7.31
			c7.37,3.2,9.73,12.65,13.13,19.33C63.83,418.69,52.49,443.46,40.24,417.97z M77.7,486.89c-6.56,1.5-9.11-10.47-13.21-14.37
			c-12.09-12.52-3.36-31.12,9.22-19.46c5.06,6.55,9.76,13.77,12.25,21.72C88.18,480.11,84.74,490.81,77.7,486.89z M107.19,536.05
			c-7.48-5.98-18.26-15.14-20.68-24.37c3.19-12.97,17.48,1,22.11,6.25C114.77,522.85,120.84,539.6,107.19,536.05z M118.88,506.67
			c-2.58-2.82-5.03-5.71-7.42-8.65c38.71-0.95,76.7-10.78,115.29-13.41C205.94,520.98,146.38,545.45,118.88,506.67z M155.68,536.46
			c28.36-2.1,61.8-15.24,78.22-52.45c10.82-0.76,21.64-0.89,32.39-0.41c-17.86,28.24-45,57.48-78.37,64.38
			C176.79,545.97,165.91,541.97,155.68,536.46z M248.46,536.84c-10.56,6.59-21.68,10.4-32.93,11.89
			c24.66-14.79,43.66-39.5,57.2-64.77c11.48,0.79,22.89,2.25,34.17,4.33C292.99,510.2,272.76,527.97,248.46,536.84z M280.26,562.43
			c31.89-21.53,65.54-27.08,95.95-25.04c-27.61,13.45-55.06,28.61-80.81,46.03c4.87-10.83-4.57-21.61-15.74-20.51
			C279.87,562.74,280.07,562.58,280.26,562.43z M255.91,581.34c15.59-4.95,41.02-17.63,27.16,10.71
			c-15.5,11.2-30.25,23.29-43.9,36.42c-4.72-17.82-16.99-15.8-30.97-7.19C222.77,606.75,239.3,594.02,255.91,581.34z M175.57,635.79
			c3.65-5.11,16.61-24.36,23.15-20.77c8.47,5.66-7.91,16.12-10.93,20.92C185.25,640.98,174.01,644.36,175.57,635.79z M149.54,714.77
			c-5.67-5.19-5.85-27.09,4.69-25.94C162.77,691.15,159.26,719.99,149.54,714.77z M161.6,672.85c-9.58,3.35-7.5-8.59-3.63-13.26
			c0.15-3.65,3.82-6.7,7.41-6.15C173.05,654.17,164.7,670.1,161.6,672.85z M178.42,711.17c-16.03-4.84-11.95-26.24-5.37-41.11
			C186.05,668.48,186.11,694.66,178.42,711.17z M211.92,774.08c-15.36,2.51-21.69,3.38-15.74-30.41c-0.07-1.49,0-3.16,0.11-4.89
			C227.1,725.35,214.39,757.01,211.92,774.08z M220.99,735.88c-5.19-8.94-15.12-8.27-24.11-4.83c0.26-3.93,0.33-7.84-0.47-11.06
			c4.07-8.84,8.6-17.41,13.53-25.72c3.34,13.17,10.02,30.25,12.28,38.01C221.81,733.47,221.39,734.68,220.99,735.88z M190.37,688.45
			c-0.37-15.32-5.42-24.35-13.88-25.23c0.24-0.42,0.47-0.83,0.72-1.22c5.11-11.92,17.99-17.84,26.91-26.15
			c10.59-7.95,25.46-22.87,27.82-0.22C216.21,651.68,202.15,669.21,190.37,688.45z M261.82,811.28c-18.68,12.8-34.75-4.75-33.71-24
			c-0.5-8.84,1.42-18.17,2.94-26.79c15.61-3.96,31.92,4.45,35.78,22.97C264.8,792.65,263.13,801.94,261.82,811.28z M269.63,771.7
			c-6.24-14.51-23.5-21.06-37.04-18.36c0.45-1.94,0.91-3.86,1.41-5.78c21.84-2.87,25.35-16.41,39.56,9.99
			C272.16,762.25,270.85,766.97,269.63,771.7z M243.23,721.25c-13.6-5.95-11.92-25.67-17.03-37.11
			c-4.61-14.16,15.51-9.76,23.58-10.59c25.82-2.48,37.84,14.98,30.87,39.08C273.21,734.49,260.11,717.54,243.23,721.25z
			 M307.08,822.82c-8,0.37-15.97-1.63-23.54-7.15c-0.94-1.07-1.87-2.02-2.82-2.86c1-7.77,2.22-15.5,3.7-23.2
			c10.89-4.39,19.94,0.57,24.08,13.06C307.77,809.33,307.3,816.04,307.08,822.82z M310.08,790.89c-5.37-8.19-15.4-11.27-24.16-8.8
			c1.34-6.32,2.85-12.6,4.5-18.83c8.68-3.04,17.94-7.25,27.46-7.62C314.55,767.2,311.92,778.96,310.08,790.89z M292.72,703.75
			c-0.43-7.5,2.12-15.69,9.86-18.3c22.36-8.23,27.78,19.7,16.05,33.77C295.28,762.11,279.09,742.17,292.72,703.75z M322.58,819.35
			c3.77-24.43,40.31-64.72,56.49-42.87C360.62,791.26,345.5,810.31,322.58,819.35z M380.59,768.57
			c-21.21-17.17-43.02,9.64-56.35,28.68c1.63-14.29,4.46-28.38,8.3-42.22c19.17-0.04,37.9,1.59,50.51-9.82
			C381.87,752.93,381.04,760.71,380.59,768.57z M390.46,705.42c-5.61-9.31-16.3-16.81-28.91-21.8c4.22-7.96,8.7-15.81,13.4-23.54
			C396.62,661.5,390.63,690.28,390.46,705.42z M444.81,701.38c-10.86,23.96-28.76,43.28-48.55,60.24
			c0.43-7.23,1.19-14.41,2.25-21.56C416.88,718.07,449.92,627.44,444.81,701.38z M449.91,690.58c0.49-57.58-31.62,2.93-48.96,35.52
			c8.24-28.39,17.67-86.04,45.67-99.76c11.93-7.4,18.56-1.03,21.38,8.76C463.75,654.18,457.8,672.83,449.91,690.58z M471.45,617.23
			c-7.59-6.33-18.37-8.18-31.33,1.83c9.06-18.32,18.75-36.22,28.3-53.69c3.21,1.75,5.82,3.27,7.76,4.43
			C475.59,585.63,474.05,601.52,471.45,617.23z M293.53,385.08c-8.51-18.02-19.54-34.71-31.62-50.51
			c81.47,56.3,154.56,124.52,214.09,203.49c0.05,0.83,0.11,1.64,0.16,2.45C422.4,480.68,365.2,424.2,293.53,385.08z M501.29,736.21
			c-7.08-0.01-12.79-5.07-12.79-8.01c0.01-2.93,3.84-0.03,10.9-0.01c7.08,0.01,14.7-2.86,14.68,0.07
			C514.09,731.19,508.36,736.22,501.29,736.21z M501.31,709.02c-8.41-0.03-15.2-6.03-15.19-9.52c0-3.5,4.91,0.47,13.31,0.49
			c8.39,0.01,17.1-3.92,17.08-0.42C516.52,703.06,509.7,709.04,501.31,709.02z M501.32,684.18c-10.05-0.03-18.18-7.48-18.17-11.81
			c0-4.34,6.32,1.23,16.37,1.26c10.05,0.01,20.03-5.52,20.01-1.19C519.52,676.78,511.37,684.2,501.32,684.18z M501.33,657.83
			c-10.43-0.03-18.86-7.48-18.85-11.82c0-4.33,6.55,1.25,16.98,1.26c10.43,0.03,20.77-5.52,20.77-1.18
			C520.22,650.42,511.76,657.84,501.33,657.83z M516.89,580.47c-8.98-44.74,0-84.06,0-84.06
			C525.88,531.66,516.89,580.47,516.89,580.47z M955.06,236.08c4.24-9.24,15.6-2.84,15.4,5.62c2.36,8.35,8.08,20.57,0.27,27.64
			C959,275.06,951.71,243.83,955.06,236.08z M842.46,480.5c-1.25-0.16-2.48-0.33-3.73-0.49c19.99-33.44,57.61-52.01,95.63-55.67
			c-1.56,4.76-3.24,9.48-5.06,14.13C896.68,441.31,863.49,454.63,842.46,480.5z M924.28,450.49c-5.3,11.81-11.51,23.19-18.81,33.94
			c-18.66,0.94-37.34-0.73-56.02-3.04C869.18,461.87,896.79,452.07,924.28,450.49z M654.79,679.84
			c-5.52-9.95-11.46-19.73-17.71-29.31c-0.01-3.47-1.37-6.78-1.48-10.14c7.78,2.77,17.52,12.51,25.87,5.72
			c6.56,9.92,12.72,20.15,18.39,30.63C671.56,676.69,663.04,677.74,654.79,679.84z M622.05,725.44
			c-2.94-15.58,17.98-24.35,30.78-24.93c5.48-0.75,15.01,2.81,16.61,9.06C688.66,742.85,634.7,747.91,622.05,725.44z M607.08,688.31
			c-2.22-12.96-45.31-85.85-6.39-69.47c10.49,9.27,16.99,23.58,25.26,35.1C609.19,655.28,606.82,674.92,607.08,688.31z
			 M632.76,446.59c7.25-5.57,14.62-11,22.1-16.27c-6.52,11.93-9.83,25.34-11.13,38.79c-11.05,5.8-21.94,11.92-32.62,18.34
			c1.21-15.86,8.84-31.27,21.68-40.84L632.76,446.59z M786.05,346.41c-21.19,9.53-41.96,19.99-62.19,31.35
			c18.51-27.92,42.13-52.27,67.18-74.36C801.62,316.58,781.99,331.82,786.05,346.41z M791.57,363.53
			c-30.22,14.78-60.21,37.6-70.42,71.02c-4.45,1.65-8.88,3.36-13.29,5.11c12.46-39.4,40.4-71.47,80.43-83.63
			C789.17,358.56,790.28,361.07,791.57,363.53z M730.99,383.55c-13.9,17.19-23.67,37.65-29.82,58.82
			c-7.96,3.27-15.85,6.68-23.69,10.24C683.81,422.84,702.31,395.36,730.99,383.55z M677.96,483.16c-8.43,2.22-16.77,4.77-25.02,7.65
			c0.53-8.39,4.69-16.28,9.38-23.14c6.18-2.89,12.39-5.69,18.67-8.41C677.73,466.67,676.19,475.16,677.96,483.16z M648.84,492.27
			c-8.22,2.98-16.32,6.28-24.31,9.86c0.39-18.37,16.58-24.74,31.02-31.24C651.88,477.4,648.84,484.64,648.84,492.27z M672.82,454.74
			c-8.27,3.85-16.46,7.85-24.55,12.03c2.09-13.72,6.49-27.42,14.48-38.81c7.69-10.97,20.69-16.08,31.47-23.46
			C683.08,419.11,675.81,436.67,672.82,454.74z M606.77,490.09c-26.34,16.09-51.51,34.09-75.18,53.96
			c24.47-29.79,51.74-56.96,81.23-81.5C608.81,471.15,606.77,480.63,606.77,490.09z M625.27,486.47c-2.73,5.44-4.8,11.36-4.89,17.53
			c-13.38,6.2-26.39,13.21-38.95,20.92c-13.86,3.96-27.51,9.48-40.39,17.02C567.54,521.17,595.76,502.66,625.27,486.47z
			 M637.17,596.35c-17.29-18.29-36.23-34.98-56.51-49.77c3.5-1.1,7.09-2.13,10.81-3.09c22.7,13.6,45.38,28.92,66.71,46.05
			C651,587.2,639.43,587.08,637.17,596.35z M675.62,604.24c10.1,8.95,19.8,18.33,28.91,28.18c-11.76-4.52-39.5-35.24-46.64-12.42
			c-4.65-5.74-9.46-11.35-14.43-16.84C641.78,585.45,667.89,600.68,675.62,604.24z M605.33,606.45
			c-14.44-18.33-29.69-35.84-45.1-52.49c3.39-1.4,6.97-2.78,10.72-4.14c19.42,14.45,37.41,30.89,53.75,48.91
			C617.63,595.14,604.14,595.33,605.33,606.45z M552.21,557.45c14.68,16.56,29.33,34.06,43.2,52.4
			c-8.73-2.75-17.25,4.07-17.29,13.03c-10.91-20.98-22.79-41.41-34.53-61.33C546.23,560.23,549.1,558.85,552.21,557.45z
			 M627.46,607.16c14.03,5.72,20.56,21.34,29.76,32.64c-5.63,7.05-24.19-16.77-28.35-1.51
			C621.93,628.38,595.57,591.66,627.46,607.16z M665.16,629.23c-0.14-3.13-0.88-7.27,0.73-9.91c17.5,2.17,29.21,23.71,48.02,23.65
			c4.47,5.25,8.79,10.62,12.91,16.09c-21.72,3-15.17,12.73-31.04,16.27C686.64,659.3,676.4,643.89,665.16,629.23z M721.66,635.24
			c1.13-3.77,0.18-8.08,1.44-11.67c13.79,6.58,22.3,25.63,39.1,25.76c4.15,4.81,8.16,9.72,12.01,14.74
			c-9.97-4.03-22.07-5.78-32.99-5.88C735.09,650.27,728.55,642.63,721.66,635.24z M714.38,627.62c-9.56-9.72-19.67-18.98-30.2-27.8
			c-8.76-19.01,2.92-14.66,15.44-8.75c14.49,11.05,28.34,22.9,41.27,35.63C731.3,617.77,715.53,606.29,714.38,627.62z
			 M674.66,592.04c-23.89-18.98-49.52-35.78-75.13-50.49c5.5-1.21,11.21-2.22,17.06-2.98c22.74,11.99,45.34,25.52,66.9,40.68
			C676.73,578.89,673.04,586.17,674.66,592.04z M606.7,519.34c12.45-6.25,25.23-11.81,38.28-16.57c5.17,5.07,10.83,9.5,16.84,13.49
			C644.76,515.62,625.87,516.25,606.7,519.34z M651.13,500.58c13.34-4.58,26.95-8.32,40.74-11.15
			c6.52,12.79,15.63,24.18,26.47,33.63C697.23,519.47,670.9,517.57,651.13,500.58z M682.32,482.02
			c-1.03-10.05,3.88-19.73,10.07-27.35l-0.18-0.12c14.24-5.83,28.68-11.19,43.28-16.04c-13.5,11.81-25.79,25.07-36.11,39.75
			C693.66,479.37,687.97,480.61,682.32,482.02z M816.99,416.78c-0.05,0.8-0.12,1.6-0.18,2.41c-35.71,10.94-72.91,26.21-97.16,55.83
			c-5.45,0.69-10.89,1.51-16.3,2.48C736.48,438.39,767.36,424.82,816.99,416.78z M816.13,436.03c0.16,2.96,0.58,5.84,1.41,8.6
			c-7.76,4.76-18.25,13.63-26.89,29.72c-20.49-1.74-41.14-2.45-61.45-0.37C753.43,452.9,785.2,442.74,816.13,436.03z M843.99,354.87
			c7.53,9.46,11.34,33.33-5.78,33.87c-11.63-4.5-13.71-19.71-20.22-29.14c-33.58-36.38-6.25-59.5,2.4-39.52
			C817.31,339.74,832.6,342.8,843.99,354.87z M837.71,276.34c6.67-3.62,13.37-7.16,20.12-10.62c-3.74,14.02,1.4,31.5,8.6,49.5
			c-11.38,3.76-22.7,7.76-33.92,12C835.62,313.41,844.08,287.84,837.71,276.34z M871.03,363.47c4.34-1.88,8.75-3.61,13.15-5.29
			c5.23,12.91,5.59,24.2,6.28,35.92c-10.41,1.18-20.81,2.59-31.17,4.23C864.82,386.92,878.89,378.56,871.03,363.47z M838,336.55
			c10.85-3.85,21.79-7.47,32.77-10.86c3.74,8.75,7.65,17.49,10.94,25.91c-4.37,2.3-8.7,4.65-12.95,7.15
			C862.73,346.96,850.82,335.89,838,336.55z M889.28,321.26c1.19-5.34,7.32-7.53,11.38-3.67c11.38,13.33,12.3,36.3,3.67,51.41
			c-10.48,12.37-7.84-15.7-10.06-20.92C891.84,339.39,886.39,330.48,889.28,321.26z M895.63,305.19
			c-8.37,4.27-12.95-8.58-18.17-12.99c-6.37-6.81-14.33-15.78-10.58-25.78c5.71-11.95,16.89,1.83,17.73,9.84
			C891.26,283.73,901.86,294.82,895.63,305.19z M855.16,441.63c-35.54,25.41-33.27-64.27-12.56-39.43
			c3.29,4.41,3.65,11.71,7.69,16.16C857.4,423.84,863.27,434.24,855.16,441.63z M821.03,452.04c5.94,9.5,17.15,10.63,27.2,5.38
			c-4.99,6.85-10.06,14.22-12.93,22.13c-11.92-1.59-23.84-3.23-35.75-4.42C806.72,462.97,814.88,455.96,821.03,452.04z
			 M870.51,435.15c7.01-12.37-10.03-16.65-11.7-25.56c27.14-3.85,54.48-6.1,81.79-6.78c-0.23,0.94-0.47,1.86-0.72,2.79
			C915.96,408.64,876.61,428.3,870.51,435.15z M909.32,392.2c6.68-17.25,10.01-32.09,10.94-45.07c9.87-2.22,20.47-3.76,30.71-3.74
			c-1.72,15.62-4.08,31.28-7.4,46.7C932.15,390.53,920.73,391.21,909.32,392.2z M920.43,334.69c-0.39-7.99-1.72-15.19-3.73-21.76
			c12.56-3.12,25.16-5.94,37.8-8.47c-0.79,7.74-1.44,15.23-1.99,22.97C941.48,328.5,930.97,331.2,920.43,334.69z M912.35,301.5
			c-0.16-0.35-0.34-0.72-0.5-1.07c5.65-22.66,17.86-43.67,34.28-60.32c5.74,16.31,8.61,34.13,8.8,51.12
			C940.69,294.29,926.48,297.71,912.35,301.5z M945.27,189.98c4.49,0,8.14,3.64,8.14,8.14c0,4.49-3.64,8.14-8.14,8.14
			s-8.14-3.64-8.14-8.14C937.14,193.62,940.78,189.98,945.27,189.98z M905.74,289.31c-8.41-13.46-18.53-24.18-25.18-34.95
			c17.75-8.6,35.73-16.66,53.88-24.24C920.69,247.44,910.58,267.73,905.74,289.31z M918.16,160.15c5.24,0,9.49,4.25,9.49,9.49
			c0,5.24-4.25,9.49-9.49,9.49s-9.49-4.25-9.49-9.49C908.66,164.4,912.91,160.15,918.16,160.15z M930.81,210.21
			c-34.51,15.24-68.32,32.3-101.16,51.14c14.74-30.53,34.38-66.27,68.17-77.54C911.27,189.07,922.22,198.42,930.81,210.21z
			 M889.68,156.09c3.74,0,6.78,3.04,6.78,6.78c0,3.74-3.04,6.78-6.78,6.78c-3.74,0-6.78-3.04-6.78-6.78
			C882.9,159.12,885.94,156.09,889.68,156.09z M862.57,169.64c3.74,0,6.78,3.04,6.78,6.78s-3.04,6.78-6.78,6.78
			s-6.78-3.04-6.78-6.78S858.82,169.64,862.57,169.64z M817.94,203.03c2.61-10.61,21.01-29.11,28.67-13.52
			c0.74,11.74-11.92,18.87-14.87,29.79C819.79,258.25,807.74,223.31,817.94,203.03z M801.21,272.64c3.54-8.46,15.27-4.84,17.44,2.83
			c2.62,6.22,2.13,13.34,3.08,19.93C820.26,326.67,796.13,283.89,801.21,272.64z M817.18,406.24c-30.2,6.63-59.96,15.21-89.03,25.72
			c12.87-28.81,41.31-46.99,69.6-58.6C805.14,383.51,817.93,392.45,817.18,406.24z M797.09,218.55
			c-3.74,14.55-4.69,30.28-6.63,44.61c-3.97,8.05-18.7,16.95-9.26,27.31c-20.87,14.64-42.4,28.6-62.56,44.3
			C740.02,293.2,760.13,248.73,797.09,218.55z M740.54,244.22c3.74,0,6.78,3.04,6.78,6.78c0,3.74-3.04,6.78-6.78,6.78
			c-3.74,0-6.78-3.04-6.78-6.78C733.76,247.25,736.79,244.22,740.54,244.22z M723.49,276.34c15.47-8.35,14.82,10.95,5.13,17.71
			C716.76,326.02,704.86,289.14,723.49,276.34z M670.11,352.36c9.8-10.28,19.62-20.56,29.44-30.83c-2.78,11.2-5,22.55-7.08,33.76
			c-8.39,6.81-16.66,13.75-24.81,20.81C667.63,368.1,668.5,360.16,670.11,352.36z M654.05,374.23
			c5.27,14.86-32.97,45.98-29.23,16.23C623.17,375.2,656.5,342.51,654.05,374.23z M611.96,413.27c0.94,4.03,1.98,8.04,3.13,12.04
			c-5.87,5.93-11.67,11.92-17.38,17.99l-5.57-9.27C598.74,427.11,605.36,420.18,611.96,413.27z M587.28,439.11l5.63,9.38
			c-4.39,4.76-8.75,9.56-13.03,14.41l-10.18-5.36C575.55,451.39,581.43,445.25,587.28,439.11z M552.27,475.79
			c4.18-4.38,8.37-8.76,12.56-13.14l10.43,5.49c-15.02,17.23-29.4,35.04-43.06,53.38C534.19,504,538.72,486.04,552.27,475.79z
			 M531.05,534.89c59.09-77.62,131.33-144.78,211.71-200.32c-12.07,15.8-23.09,32.49-31.62,50.51
			c-70.63,38.55-127.19,93.96-180.29,152.83C530.92,536.91,530.99,535.91,531.05,534.89z M530.65,568.54
			c1.59-0.94,3.46-2.01,5.61-3.17c9.55,17.48,19.24,35.37,28.31,53.69c-11.92-9.18-21.97-8.39-29.41-3.31
			C532.64,600.11,531.18,584.28,530.65,568.54z M554.82,685.65c-7.34-17.42-12.87-35.67-16.77-54.3c3.35-7.5,9.69-11.4,20.01-5
			c28,13.72,37.42,71.37,45.68,99.76C586.92,694.52,556.23,636.69,554.82,685.65z M576.68,726.68c-6.45-9.72-12.14-19.9-17.12-30.41
			c-3.21-64.49,28.69,22.33,46.61,43.79c0.96,6.47,1.68,12.98,2.13,19.51C596.92,749.4,586.05,738.74,576.68,726.68z M614.21,705.42
			c-0.16-15.13-6.16-43.92,15.51-45.34c4.69,7.73,9.18,15.58,13.4,23.54C630.51,688.6,619.82,696.1,614.21,705.42z M621.64,745.21
			c12.6,11.4,31.32,9.78,50.49,9.82c3.84,13.84,6.67,27.93,8.3,42.22c-13.33-19.04-35.14-45.84-56.35-28.68
			C623.63,760.71,622.81,752.93,621.64,745.21z M626.49,775.37c16.37-19.05,50.98,18.97,55.44,43.04
			C659.59,808.54,644.89,790.01,626.49,775.37z M702.1,685.44c7.74,2.62,10.29,10.81,9.86,18.3c13.64,38.43-2.56,58.36-25.9,15.47
			C674.32,705.15,679.74,677.21,702.1,685.44z M686.8,755.64c9.52,0.37,18.79,4.58,27.46,7.62c1.65,6.24,3.16,12.51,4.5,18.83
			c-8.76-2.47-18.78,0.61-24.16,8.8C692.76,778.96,690.13,767.2,686.8,755.64z M697.6,822.66c-0.22-6.71-0.69-13.38-1.42-19.99
			c4.14-12.49,13.19-17.45,24.08-13.06c1.6,8.33,2.93,16.69,3.95,25.08C716.47,821.67,706.44,823.49,697.6,822.66z M731.11,757.56
			c14.21-26.4,17.73-12.87,39.56-9.99c0.5,1.91,0.96,3.84,1.41,5.78c-13.53-2.7-30.81,3.85-37.04,18.36
			C733.83,766.97,732.51,762.25,731.11,757.56z M745.81,811.73c-0.98-0.79-2.1-1.19-3.12-1.65c-1.29-8.94-2.92-17.82-4.85-26.62
			c3.86-18.52,20.18-26.93,35.78-22.97C776.01,769.64,786.39,840.84,745.81,811.73z M778.47,684.14
			c-5.1,11.44-3.43,31.16-17.03,37.11c-16.88-3.72-29.98,13.23-37.42-8.62c-6.97-24.09,5.06-41.56,30.89-39.08
			C762.98,674.38,783.08,669.99,778.47,684.14z M783.68,735.88c-0.39-1.21-0.81-2.41-1.23-3.61c2.26-7.76,8.96-24.84,12.28-38.01
			c6.11,12.07,15.89,23.61,15.29,37.71C800.49,727.79,789.31,726.2,783.68,735.88z M792.71,773.72
			c-3.21-19.1-14.82-49.52,17.91-33.84C818.88,775.96,797.48,781.14,792.71,773.72z M814.31,688.45
			c-11.78-19.24-25.84-36.77-41.57-52.82c2.36-22.66,17.25-7.73,27.82,0.22c8.92,8.81,22.78,14.79,29.08,26.15
			c0.23,0.37,0.45,0.76,0.68,1.15C820.57,662.65,814.7,671.89,814.31,688.45z M856.13,714.77c-9.72,5.23-13.23-23.62-4.69-25.94
			C861.98,687.68,861.8,709.58,856.13,714.77z M840.3,653.44c3.59-0.55,7.26,2.51,7.41,6.15c3.87,4.67,5.95,16.61-3.63,13.26
			C840.97,670.1,832.63,654.17,840.3,653.44z M826.49,711.64c-8.38-17.41-7.97-46.32,7.57-41.02
			C840.72,686.04,844.56,708.03,826.49,711.64z M808.02,619.32c6.46-3.74,19.84,15.22,23.61,20.25c1.75,8.53-9.56,5.4-12.22,0.42
			C816.29,635.26,799.68,625.17,808.02,619.32z M802.74,625.46c-16.47-11.76-31.81-17.44-37.23,3.01
			c-13.65-13.12-28.41-25.22-43.9-36.42c-15.65-31,18.94-13.68,33.4-7.61C771.8,597.31,788.37,610.37,802.74,625.46z M725.15,562.91
			c-11.23-1.21-20.77,9.61-15.88,20.5c-25.75-17.42-53.2-32.58-80.81-46.03C659.12,535.34,693.04,540.96,725.15,562.91z
			 M734.12,526.47c-14.3-10.37-26.67-23.44-36.35-38.18c11.28-2.07,22.7-3.54,34.17-4.33c13.42,25.04,32.19,49.53,56.53,64.36
			C769.25,545.8,753.17,532.04,734.12,526.47z M817.7,548.18c-33.8-6.52-61.3-36.05-79.32-64.57c10.77-0.49,21.57-0.35,32.39,0.41
			c16.79,38.05,51.39,50.93,80.16,52.58C840.41,542.24,829.18,546.25,817.7,548.18z M777.92,484.61
			c39.31,2.68,77.99,12.81,117.43,13.45c-2.36,2.93-4.81,5.8-7.38,8.61C859.77,545.29,799,521.64,777.92,484.61z M898.49,536.05
			c-13.65,3.55-7.58-13.2-1.43-18.12c4.63-5.26,18.92-19.23,22.11-6.25C916.75,520.92,905.97,530.07,898.49,536.05z M941.19,472.52
			c-4.1,3.9-6.65,15.87-13.21,14.37c-7.04,3.92-10.48-6.78-8.26-12.12c2.49-7.95,7.19-15.17,12.25-21.72
			C944.55,441.4,953.28,460,941.19,472.52z M965.43,417.97c-12.25,25.49-23.58,0.72-16.25-15.25c3.4-6.69,5.76-16.13,13.13-19.33
			c4.88-1.31,8.62,2.56,8.41,7.31C968.82,399.66,968.77,409.4,965.43,417.97z M967.16,355.28c-8.96-10.67-3.97-38.77,0.23-51.48
			c2.76-4.65,9.02-4.87,11.96-0.21c2.79,5.05,0.74,11.12,0.3,16.53C979.01,327.9,980.38,360.69,967.16,355.28z" class="color38313a svgShape"></path></g></switch></svg></g></svg>